<mxfile host="app.diagrams.net" modified="2024-06-13T12:40:00.357Z" agent="Mozilla/5.0 (Windows NT 10.0; Win64; x64) AppleWebKit/537.36 (KHTML, like Gecko) Chrome/125.0.0.0 Safari/537.36" etag="U4hxrpUzl8IsLXlNdCrq" version="24.5.4" type="github">
  <diagram name="Page-1" id="e7e014a7-5840-1c2e-5031-d8a46d1fe8dd">
    <mxGraphModel dx="2219" dy="530" grid="1" gridSize="10" guides="1" tooltips="1" connect="1" arrows="1" fold="1" page="1" pageScale="1" pageWidth="1169" pageHeight="826" background="none" math="0" shadow="0">
      <root>
        <mxCell id="0" />
        <mxCell id="1" parent="0" />
        <mxCell id="ce1uFYTm75PrPKcccy6C-41" value="" style="rounded=0;whiteSpace=wrap;html=1;fillColor=#e1d5e7;strokeColor=#9673a6;" vertex="1" parent="1">
          <mxGeometry x="-220" y="600" width="1070" height="180" as="geometry" />
        </mxCell>
        <mxCell id="ce1uFYTm75PrPKcccy6C-42" value="" style="rounded=0;whiteSpace=wrap;html=1;fillColor=#f9f7ed;strokeColor=#36393d;" vertex="1" parent="1">
          <mxGeometry x="-220" y="210" width="1070" height="260" as="geometry" />
        </mxCell>
        <mxCell id="ce1uFYTm75PrPKcccy6C-43" value="" style="rounded=0;whiteSpace=wrap;html=1;fillColor=#eeeeee;strokeColor=#36393d;" vertex="1" parent="1">
          <mxGeometry x="-220" y="470" width="1070" height="130" as="geometry" />
        </mxCell>
        <mxCell id="ce1uFYTm75PrPKcccy6C-44" value="机器人" style="shape=umlLifeline;perimeter=lifelinePerimeter;container=1;collapsible=0;recursiveResize=0;rounded=0;shadow=0;strokeWidth=1;" vertex="1" parent="1">
          <mxGeometry x="-170" y="120" width="100" height="690" as="geometry" />
        </mxCell>
        <mxCell id="ce1uFYTm75PrPKcccy6C-45" value="" style="points=[];perimeter=orthogonalPerimeter;rounded=0;shadow=0;strokeWidth=1;" vertex="1" parent="ce1uFYTm75PrPKcccy6C-44">
          <mxGeometry x="45" y="76" width="10" height="564" as="geometry" />
        </mxCell>
        <mxCell id="ce1uFYTm75PrPKcccy6C-46" value="运行时" style="text;html=1;strokeColor=none;fillColor=none;align=center;verticalAlign=middle;whiteSpace=wrap;rounded=0;" vertex="1" parent="ce1uFYTm75PrPKcccy6C-44">
          <mxGeometry x="-30" y="546" width="60" height="30" as="geometry" />
        </mxCell>
        <mxCell id="ce1uFYTm75PrPKcccy6C-47" value="Aiot" style="shape=umlLifeline;perimeter=lifelinePerimeter;container=1;collapsible=0;recursiveResize=0;rounded=0;shadow=0;strokeWidth=1;" vertex="1" parent="1">
          <mxGeometry x="10" y="120" width="100" height="690" as="geometry" />
        </mxCell>
        <mxCell id="ce1uFYTm75PrPKcccy6C-48" value="" style="points=[];perimeter=orthogonalPerimeter;rounded=0;shadow=0;strokeWidth=1;" vertex="1" parent="ce1uFYTm75PrPKcccy6C-47">
          <mxGeometry x="45" y="80" width="10" height="560" as="geometry" />
        </mxCell>
        <mxCell id="ce1uFYTm75PrPKcccy6C-49" value="Rosbag" style="verticalAlign=middle;endArrow=block;shadow=0;strokeWidth=1;" edge="1" parent="ce1uFYTm75PrPKcccy6C-47">
          <mxGeometry relative="1" as="geometry">
            <mxPoint x="-118.86999999999989" y="116" as="sourcePoint" />
            <mxPoint x="41" y="116.5" as="targetPoint" />
          </mxGeometry>
        </mxCell>
        <mxCell id="ce1uFYTm75PrPKcccy6C-50" value="stage" style="verticalAlign=middle;endArrow=block;shadow=0;strokeWidth=1;" edge="1" parent="ce1uFYTm75PrPKcccy6C-47">
          <mxGeometry relative="1" as="geometry">
            <mxPoint x="-120" y="600" as="sourcePoint" />
            <mxPoint x="39.86999999999989" y="600.5" as="targetPoint" />
          </mxGeometry>
        </mxCell>
        <mxCell id="ce1uFYTm75PrPKcccy6C-51" value="APM" style="shape=umlLifeline;perimeter=lifelinePerimeter;container=1;collapsible=0;recursiveResize=0;rounded=0;shadow=0;strokeWidth=1;" vertex="1" parent="1">
          <mxGeometry x="350" y="120" width="100" height="690" as="geometry" />
        </mxCell>
        <mxCell id="ce1uFYTm75PrPKcccy6C-52" value="" style="points=[];perimeter=orthogonalPerimeter;rounded=0;shadow=0;strokeWidth=1;" vertex="1" parent="ce1uFYTm75PrPKcccy6C-51">
          <mxGeometry x="45" y="80" width="10" height="560" as="geometry" />
        </mxCell>
        <mxCell id="ce1uFYTm75PrPKcccy6C-53" value="display" style="verticalAlign=middle;endArrow=block;shadow=0;strokeWidth=1;" edge="1" parent="ce1uFYTm75PrPKcccy6C-51">
          <mxGeometry relative="1" as="geometry">
            <mxPoint x="-32" y="181" as="sourcePoint" />
            <mxPoint x="45" y="181" as="targetPoint" />
          </mxGeometry>
        </mxCell>
        <mxCell id="ce1uFYTm75PrPKcccy6C-54" value="webviz" style="shape=umlLifeline;perimeter=lifelinePerimeter;container=1;collapsible=0;recursiveResize=0;rounded=0;shadow=0;strokeWidth=1;" vertex="1" parent="1">
          <mxGeometry x="571" y="120" width="100" height="690" as="geometry" />
        </mxCell>
        <mxCell id="ce1uFYTm75PrPKcccy6C-55" value="" style="points=[];perimeter=orthogonalPerimeter;rounded=0;shadow=0;strokeWidth=1;" vertex="1" parent="ce1uFYTm75PrPKcccy6C-54">
          <mxGeometry x="45" y="80" width="10" height="560" as="geometry" />
        </mxCell>
        <mxCell id="ce1uFYTm75PrPKcccy6C-56" value="url" style="verticalAlign=middle;endArrow=block;shadow=0;strokeWidth=1;" edge="1" parent="ce1uFYTm75PrPKcccy6C-54">
          <mxGeometry relative="1" as="geometry">
            <mxPoint x="-163" y="181" as="sourcePoint" />
            <mxPoint x="-68" y="182" as="targetPoint" />
          </mxGeometry>
        </mxCell>
        <mxCell id="ce1uFYTm75PrPKcccy6C-57" value="运行时" style="text;html=1;strokeColor=none;fillColor=none;align=center;verticalAlign=middle;whiteSpace=wrap;rounded=0;" vertex="1" parent="1">
          <mxGeometry x="-200" y="520" width="60" height="30" as="geometry" />
        </mxCell>
        <mxCell id="ce1uFYTm75PrPKcccy6C-58" value="vscode" style="shape=umlLifeline;perimeter=lifelinePerimeter;container=1;collapsible=0;recursiveResize=0;rounded=0;shadow=0;strokeWidth=1;" vertex="1" parent="1">
          <mxGeometry x="731" y="120" width="100" height="690" as="geometry" />
        </mxCell>
        <mxCell id="ce1uFYTm75PrPKcccy6C-59" value="" style="points=[];perimeter=orthogonalPerimeter;rounded=0;shadow=0;strokeWidth=1;" vertex="1" parent="ce1uFYTm75PrPKcccy6C-58">
          <mxGeometry x="45" y="80" width="10" height="560" as="geometry" />
        </mxCell>
        <mxCell id="ce1uFYTm75PrPKcccy6C-60" value="Log" style="verticalAlign=middle;endArrow=block;shadow=0;strokeWidth=1;" edge="1" parent="1">
          <mxGeometry relative="1" as="geometry">
            <mxPoint x="-109.99999999999989" y="269" as="sourcePoint" />
            <mxPoint x="49.87" y="269.5" as="targetPoint" />
          </mxGeometry>
        </mxCell>
        <mxCell id="ce1uFYTm75PrPKcccy6C-61" value="Datas" style="verticalAlign=middle;endArrow=block;shadow=0;strokeWidth=1;" edge="1" parent="1">
          <mxGeometry relative="1" as="geometry">
            <mxPoint x="-110" y="304" as="sourcePoint" />
            <mxPoint x="49.86999999999989" y="304.5" as="targetPoint" />
          </mxGeometry>
        </mxCell>
        <mxCell id="ce1uFYTm75PrPKcccy6C-62" value="mini_dump" style="verticalAlign=middle;endArrow=block;shadow=0;strokeWidth=1;" edge="1" parent="1">
          <mxGeometry relative="1" as="geometry">
            <mxPoint x="-110" y="505" as="sourcePoint" />
            <mxPoint x="49.86999999999989" y="505.5" as="targetPoint" />
          </mxGeometry>
        </mxCell>
        <mxCell id="ce1uFYTm75PrPKcccy6C-63" value="core" style="verticalAlign=middle;endArrow=block;shadow=0;strokeWidth=1;" edge="1" parent="1">
          <mxGeometry relative="1" as="geometry">
            <mxPoint x="-110" y="545" as="sourcePoint" />
            <mxPoint x="49.86999999999989" y="545.5" as="targetPoint" />
          </mxGeometry>
        </mxCell>
        <mxCell id="ce1uFYTm75PrPKcccy6C-64" value="cpu" style="verticalAlign=middle;endArrow=block;shadow=0;strokeWidth=1;" edge="1" parent="1">
          <mxGeometry relative="1" as="geometry">
            <mxPoint x="-110" y="629" as="sourcePoint" />
            <mxPoint x="49.86999999999989" y="629.5" as="targetPoint" />
          </mxGeometry>
        </mxCell>
        <mxCell id="ce1uFYTm75PrPKcccy6C-65" value="mem" style="verticalAlign=middle;endArrow=block;shadow=0;strokeWidth=1;" edge="1" parent="1">
          <mxGeometry relative="1" as="geometry">
            <mxPoint x="-110" y="659" as="sourcePoint" />
            <mxPoint x="49.86999999999989" y="659.5" as="targetPoint" />
          </mxGeometry>
        </mxCell>
        <mxCell id="ce1uFYTm75PrPKcccy6C-66" value="Data" style="shape=umlLifeline;perimeter=lifelinePerimeter;container=1;collapsible=0;recursiveResize=0;rounded=0;shadow=0;strokeWidth=1;" vertex="1" parent="1">
          <mxGeometry x="180" y="120" width="100" height="690" as="geometry" />
        </mxCell>
        <mxCell id="ce1uFYTm75PrPKcccy6C-67" value="" style="points=[];perimeter=orthogonalPerimeter;rounded=0;shadow=0;strokeWidth=1;" vertex="1" parent="ce1uFYTm75PrPKcccy6C-66">
          <mxGeometry x="45" y="80" width="10" height="560" as="geometry" />
        </mxCell>
        <mxCell id="ce1uFYTm75PrPKcccy6C-68" value="Download" style="verticalAlign=middle;endArrow=block;shadow=0;strokeWidth=1;entryX=0.14;entryY=0.189;entryDx=0;entryDy=0;entryPerimeter=0;" edge="1" parent="ce1uFYTm75PrPKcccy6C-66">
          <mxGeometry relative="1" as="geometry">
            <mxPoint x="-114.86999999999989" y="128" as="sourcePoint" />
            <mxPoint x="216.4000000000001" y="125.84000000000003" as="targetPoint" />
          </mxGeometry>
        </mxCell>
        <mxCell id="ce1uFYTm75PrPKcccy6C-69" value="kafka" style="verticalAlign=middle;endArrow=block;shadow=0;strokeWidth=1;" edge="1" parent="ce1uFYTm75PrPKcccy6C-66">
          <mxGeometry relative="1" as="geometry">
            <mxPoint x="-114.87" y="553" as="sourcePoint" />
            <mxPoint x="44.999999999999886" y="553.5" as="targetPoint" />
          </mxGeometry>
        </mxCell>
        <mxCell id="ce1uFYTm75PrPKcccy6C-70" value="serverless" style="verticalAlign=middle;endArrow=block;shadow=0;strokeWidth=1;" edge="1" parent="ce1uFYTm75PrPKcccy6C-66">
          <mxGeometry relative="1" as="geometry">
            <mxPoint x="-114.87" y="403" as="sourcePoint" />
            <mxPoint x="44.999999999999886" y="403.5" as="targetPoint" />
          </mxGeometry>
        </mxCell>
        <mxCell id="ce1uFYTm75PrPKcccy6C-71" value="kafka" style="verticalAlign=middle;endArrow=block;shadow=0;strokeWidth=1;" edge="1" parent="ce1uFYTm75PrPKcccy6C-66">
          <mxGeometry relative="1" as="geometry">
            <mxPoint x="55" y="405" as="sourcePoint" />
            <mxPoint x="214.8699999999999" y="405.5" as="targetPoint" />
          </mxGeometry>
        </mxCell>
        <mxCell id="ce1uFYTm75PrPKcccy6C-72" value="任务完成时" style="text;html=1;strokeColor=none;fillColor=none;align=center;verticalAlign=middle;whiteSpace=wrap;rounded=0;" vertex="1" parent="1">
          <mxGeometry x="-210" y="310" width="70" height="30" as="geometry" />
        </mxCell>
        <mxCell id="ce1uFYTm75PrPKcccy6C-73" value="Rosbag" style="verticalAlign=middle;endArrow=block;shadow=0;strokeWidth=1;" edge="1" parent="1">
          <mxGeometry relative="1" as="geometry">
            <mxPoint x="500" y="239" as="sourcePoint" />
            <mxPoint x="616" y="239" as="targetPoint" />
          </mxGeometry>
        </mxCell>
        <mxCell id="ce1uFYTm75PrPKcccy6C-74" value="Log" style="verticalAlign=bottom;endArrow=block;shadow=0;strokeWidth=1;entryX=0.043;entryY=0.251;entryDx=0;entryDy=0;entryPerimeter=0;" edge="1" parent="1">
          <mxGeometry relative="1" as="geometry">
            <mxPoint x="500" y="303" as="sourcePoint" />
            <mxPoint x="776.4299999999998" y="303.55999999999995" as="targetPoint" />
          </mxGeometry>
        </mxCell>
        <mxCell id="ce1uFYTm75PrPKcccy6C-75" value="node" style="verticalAlign=middle;endArrow=block;shadow=0;strokeWidth=1;" edge="1" parent="1">
          <mxGeometry relative="1" as="geometry">
            <mxPoint x="-110" y="690" as="sourcePoint" />
            <mxPoint x="49.86999999999989" y="690.5" as="targetPoint" />
          </mxGeometry>
        </mxCell>
        <mxCell id="ce1uFYTm75PrPKcccy6C-76" value="boot" style="verticalAlign=middle;endArrow=block;shadow=0;strokeWidth=1;" edge="1" parent="1">
          <mxGeometry relative="1" as="geometry">
            <mxPoint x="-110" y="720" as="sourcePoint" />
            <mxPoint x="49.86999999999989" y="720.5" as="targetPoint" />
          </mxGeometry>
        </mxCell>
        <mxCell id="ce1uFYTm75PrPKcccy6C-77" value="" style="endArrow=none;dashed=1;html=1;rounded=0;entryX=0.5;entryY=1;entryDx=0;entryDy=0;entryPerimeter=0;" edge="1" parent="1" target="ce1uFYTm75PrPKcccy6C-78">
          <mxGeometry width="50" height="50" relative="1" as="geometry">
            <mxPoint x="320" y="810" as="sourcePoint" />
            <mxPoint x="320" y="130" as="targetPoint" />
          </mxGeometry>
        </mxCell>
        <mxCell id="ce1uFYTm75PrPKcccy6C-78" value="Doris/PG" style="shape=cylinder3;whiteSpace=wrap;html=1;boundedLbl=1;backgroundOutline=1;size=15;" vertex="1" parent="1">
          <mxGeometry x="294" y="50" width="50" height="60" as="geometry" />
        </mxCell>
        <mxCell id="ce1uFYTm75PrPKcccy6C-79" value="" style="endArrow=none;dashed=1;html=1;rounded=0;entryX=0.5;entryY=1;entryDx=0;entryDy=0;entryPerimeter=0;" edge="1" parent="1" target="ce1uFYTm75PrPKcccy6C-80">
          <mxGeometry width="50" height="50" relative="1" as="geometry">
            <mxPoint x="506" y="810" as="sourcePoint" />
            <mxPoint x="501" y="130" as="targetPoint" />
          </mxGeometry>
        </mxCell>
        <mxCell id="ce1uFYTm75PrPKcccy6C-80" value="Cephfs" style="shape=cylinder3;whiteSpace=wrap;html=1;boundedLbl=1;backgroundOutline=1;size=15;" vertex="1" parent="1">
          <mxGeometry x="476" y="51" width="50" height="60" as="geometry" />
        </mxCell>
        <mxCell id="ce1uFYTm75PrPKcccy6C-81" value="write" style="endArrow=classic;html=1;rounded=0;" edge="1" parent="1">
          <mxGeometry width="50" height="50" relative="1" as="geometry">
            <mxPoint x="235" y="676" as="sourcePoint" />
            <mxPoint x="320" y="676" as="targetPoint" />
          </mxGeometry>
        </mxCell>
        <mxCell id="ce1uFYTm75PrPKcccy6C-82" value="write" style="endArrow=classic;html=1;rounded=0;" edge="1" parent="1">
          <mxGeometry width="50" height="50" relative="1" as="geometry">
            <mxPoint x="393" y="550" as="sourcePoint" />
            <mxPoint x="319" y="550" as="targetPoint" />
          </mxGeometry>
        </mxCell>
        <mxCell id="ce1uFYTm75PrPKcccy6C-83" value="write" style="endArrow=classic;html=1;rounded=0;" edge="1" parent="1">
          <mxGeometry width="50" height="50" relative="1" as="geometry">
            <mxPoint x="393" y="273" as="sourcePoint" />
            <mxPoint x="319" y="273" as="targetPoint" />
          </mxGeometry>
        </mxCell>
        <mxCell id="ce1uFYTm75PrPKcccy6C-84" value="display" style="verticalAlign=middle;endArrow=block;shadow=0;strokeWidth=1;" edge="1" parent="1">
          <mxGeometry relative="1" as="geometry">
            <mxPoint x="318" y="579" as="sourcePoint" />
            <mxPoint x="395" y="579" as="targetPoint" />
          </mxGeometry>
        </mxCell>
        <mxCell id="ce1uFYTm75PrPKcccy6C-85" value="display" style="verticalAlign=middle;endArrow=block;shadow=0;strokeWidth=1;" edge="1" parent="1">
          <mxGeometry relative="1" as="geometry">
            <mxPoint x="318" y="676" as="sourcePoint" />
            <mxPoint x="395" y="676" as="targetPoint" />
          </mxGeometry>
        </mxCell>
        <mxCell id="ce1uFYTm75PrPKcccy6C-86" value="kafaka" style="verticalAlign=middle;endArrow=block;shadow=0;strokeWidth=1;" edge="1" parent="1">
          <mxGeometry relative="1" as="geometry">
            <mxPoint x="70" y="398" as="sourcePoint" />
            <mxPoint x="320" y="398" as="targetPoint" />
          </mxGeometry>
        </mxCell>
        <mxCell id="ce1uFYTm75PrPKcccy6C-87" value="build map report" style="verticalAlign=middle;endArrow=block;shadow=0;strokeWidth=1;" edge="1" parent="1">
          <mxGeometry relative="1" as="geometry">
            <mxPoint x="-114" y="443" as="sourcePoint" />
            <mxPoint x="50" y="443" as="targetPoint" />
          </mxGeometry>
        </mxCell>
        <mxCell id="ce1uFYTm75PrPKcccy6C-88" value="mysql" style="verticalAlign=middle;endArrow=block;shadow=0;strokeWidth=1;" edge="1" parent="1">
          <mxGeometry relative="1" as="geometry">
            <mxPoint x="70" y="444" as="sourcePoint" />
            <mxPoint x="320" y="444" as="targetPoint" />
          </mxGeometry>
        </mxCell>
        <mxCell id="ce1uFYTm75PrPKcccy6C-89" value="display" style="verticalAlign=middle;endArrow=block;shadow=0;strokeWidth=1;" edge="1" parent="1">
          <mxGeometry relative="1" as="geometry">
            <mxPoint x="320" y="423" as="sourcePoint" />
            <mxPoint x="395" y="423" as="targetPoint" />
          </mxGeometry>
        </mxCell>
        <mxCell id="ce1uFYTm75PrPKcccy6C-90" value="clean report" style="verticalAlign=middle;endArrow=block;shadow=0;strokeWidth=1;" edge="1" parent="1">
          <mxGeometry relative="1" as="geometry">
            <mxPoint x="-110" y="395" as="sourcePoint" />
            <mxPoint x="55" y="396" as="targetPoint" />
          </mxGeometry>
        </mxCell>
      </root>
    </mxGraphModel>
  </diagram>
</mxfile>
